<?xml version="1.0" encoding="UTF-8" standalone="no"?>
<!-- Created with Inkscape (http://www.inkscape.org/) -->

<svg
   xmlns:dc="http://purl.org/dc/elements/1.1/"
   xmlns:cc="http://creativecommons.org/ns#"
   xmlns:rdf="http://www.w3.org/1999/02/22-rdf-syntax-ns#"
   xmlns:svg="http://www.w3.org/2000/svg"
   xmlns="http://www.w3.org/2000/svg"
   xmlns:sodipodi="http://sodipodi.sourceforge.net/DTD/sodipodi-0.dtd"
   xmlns:inkscape="http://www.inkscape.org/namespaces/inkscape"
   width="1052.3622"
   height="744.09448"
   id="svg2"
   version="1.1"
   inkscape:version="0.48.4 r9939"
   sodipodi:docname="ht_hf.svg">
  <sodipodi:namedview
     id="base"
     pagecolor="#ffffff"
     bordercolor="#666666"
     borderopacity="1.0"
     inkscape:pageopacity="0.0"
     inkscape:pageshadow="2"
     inkscape:zoom="0.7"
     inkscape:cx="370.05299"
     inkscape:cy="398.78169"
     inkscape:document-units="px"
     inkscape:current-layer="layer1"
     showgrid="false"
     inkscape:window-width="1920"
     inkscape:window-height="1176"
     inkscape:window-x="0"
     inkscape:window-y="24"
     inkscape:window-maximized="1" />
  <defs
     id="defs4">
    <marker
       inkscape:stockid="Arrow2Lend"
       orient="auto"
       refY="0.0"
       refX="0.0"
       id="Arrow2Lend"
       style="overflow:visible;">
      <path
         id="path4371"
         style="fill-rule:evenodd;stroke-width:0.62500000;stroke-linejoin:round;"
         d="M 8.7185878,4.0337352 L -2.2072895,0.016013256 L 8.7185884,-4.0017078 C 6.9730900,-1.6296469 6.9831476,1.6157441 8.7185878,4.0337352 z "
         transform="scale(1.1) rotate(180) translate(1,0)" />
    </marker>
    <marker
       inkscape:stockid="Arrow2Lend"
       orient="auto"
       refY="0"
       refX="0"
       id="Arrow2Lend-5"
       style="overflow:visible">
      <path
         inkscape:connector-curvature="0"
         id="path4371-5"
         style="fill-rule:evenodd;stroke-width:0.625;stroke-linejoin:round"
         d="M 8.7185878,4.0337352 -2.2072895,0.01601326 8.7185884,-4.0017078 c -1.7454984,2.3720609 -1.7354408,5.6174519 -6e-7,8.035443 z"
         transform="matrix(-1.1,0,0,-1.1,-1.1,0)" />
    </marker>
    <marker
       inkscape:stockid="Arrow2Lend"
       orient="auto"
       refY="0"
       refX="0"
       id="Arrow2Lend-0"
       style="overflow:visible">
      <path
         inkscape:connector-curvature="0"
         id="path4371-4"
         style="fill-rule:evenodd;stroke-width:0.625;stroke-linejoin:round"
         d="M 8.7185878,4.0337352 -2.2072895,0.01601326 8.7185884,-4.0017078 c -1.7454984,2.3720609 -1.7354408,5.6174519 -6e-7,8.035443 z"
         transform="matrix(-1.1,0,0,-1.1,-1.1,0)" />
    </marker>
    <marker
       inkscape:stockid="Arrow2Lend"
       orient="auto"
       refY="0"
       refX="0"
       id="Arrow2Lend-1"
       style="overflow:visible">
      <path
         inkscape:connector-curvature="0"
         id="path4371-3"
         style="fill-rule:evenodd;stroke-width:0.625;stroke-linejoin:round"
         d="M 8.7185878,4.0337352 -2.2072895,0.01601326 8.7185884,-4.0017078 c -1.7454984,2.3720609 -1.7354408,5.6174519 -6e-7,8.035443 z"
         transform="matrix(-1.1,0,0,-1.1,-1.1,0)" />
    </marker>
  </defs>
  <metadata
     id="metadata7">
    <rdf:RDF>
      <cc:Work
         rdf:about="">
        <dc:format>image/svg+xml</dc:format>
        <dc:type
           rdf:resource="http://purl.org/dc/dcmitype/StillImage" />
        <dc:title></dc:title>
      </cc:Work>
    </rdf:RDF>
  </metadata>
  <g
     inkscape:label="Calque 1"
     inkscape:groupmode="layer"
     id="layer1"
     transform="translate(0,-308.2677)">
    <text
       xml:space="preserve"
       style="font-size:20px;font-style:normal;font-variant:normal;font-weight:normal;font-stretch:normal;line-height:125%;letter-spacing:0px;word-spacing:0px;fill:#000000;fill-opacity:1;stroke:none;font-family:Verdana;-inkscape-font-specification:Verdana"
       x="176.7767"
       y="245.07913"
       id="text3759"
       sodipodi:linespacing="125%"
       transform="translate(0,308.2677)"><tspan
         sodipodi:role="line"
         id="tspan3761"
         x="176.7767"
         y="245.07913" /></text>
    <g
       transform="matrix(0.97962681,0.20082657,-0.20082657,0.97962681,-812.74971,-227.82354)"
       id="g3771">
      <g
         transform="translate(6.0609153,37.375644)"
         id="g3864">
        <rect
           ry="31.31473"
           rx="46.467018"
           y="216.79486"
           x="116.16754"
           height="69.700523"
           width="264.65997"
           id="rect2985"
           style="fill:#192b4b;fill-opacity:0.77647059;stroke:none"
           transform="translate(884.89363,157.75497)" />
        <g
           word-spacing="normal"
           letter-spacing="normal"
           font-size-adjust="none"
           font-stretch="normal"
           font-weight="normal"
           font-variant="normal"
           font-style="normal"
           stroke-miterlimit="10.433"
           xml:space="preserve"
           transform="matrix(1.0629921,0,0,-1.0629921,-184.82535,790.90264)"
           id="content"
           style="font-style:normal;font-variant:normal;font-weight:normal;font-stretch:normal;letter-spacing:normal;word-spacing:normal;text-anchor:start;fill:#ffffff;fill-opacity:1;stroke:#4e4e4e;stroke-linecap:butt;stroke-linejoin:miter;stroke-miterlimit:10.43299961;stroke-opacity:1;stroke-dasharray:none;stroke-dashoffset:0"><path
             id="path3774"
             d="m 1168.1,334.49 0,0.02 0,0.03 0,0.01 0,0.02 0,0.01 0,0.02 0,0.02 0,0.01 0,0.02 0,0.02 0,0.03 0,0.02 -0.1,0.02 0,0.03 0,0.03 0,0.03 0,0.04 -0.1,0.03 0,0.02 0,0.02 0,0.02 0,0.02 -0.1,0.02 0,0.03 0,0.02 0,0.02 -0.1,0.03 0,0.03 0,0.02 0,0.03 -0.1,0.03 0,0.03 0,0.03 0,0.03 -0.1,0.03 0,0.03 0,0.04 -0.1,0.03 0,0.04 0,0.04 -0.1,0.03 0,0.04 c -6.2,6.28 -7.8,15.69 -7.8,23.31 0,8.68 1.9,17.35 8,23.57 0.6,0.61 0.6,0.7 0.6,0.86 0,0.34 -0.2,0.48 -0.5,0.48 -0.5,0 -4.9,-3.37 -7.9,-9.7 -2.5,-5.49 -3.1,-11.02 -3.1,-15.21 0,-3.89 0.5,-9.9 3.3,-15.54 2.9,-6.13 7.2,-9.36 7.7,-9.36 0.3,0 0.5,0.14 0.5,0.5 z"
             inkscape:connector-curvature="0"
             style="fill:#ffffff;fill-opacity:1;stroke:#4e4e4e;stroke-width:0;stroke-opacity:1" /><path
             id="path3776"
             d="m 1196.3,366.57 0,0.01 0,0.02 0,0.02 0,0.01 0,0.02 0,0.03 0,0.02 0,0.02 -0.1,0.02 0,0.03 0,0.02 0,0.03 0,0.05 0,0.05 0,0.05 -0.1,0.05 0,0.02 0,0.03 0,0.02 0,0.03 0,0.02 0,0.02 0,0.02 0,0.02 0,0.02 0,0.02 0,0.01 0,0.02 c 0,0.05 0.9,0.75 1.4,1.14 l 8.7,6.73 c 4.7,3.44 6.7,3.63 8.1,3.79 0.5,0.04 0.9,0.09 0.9,1 0,0.18 -0.1,0.54 -0.5,0.54 -1.1,0 -2.3,-0.15 -3.5,-0.15 -1.8,0 -3.8,0.15 -5.6,0.15 -0.3,0 -0.9,0 -0.9,-1 0,-0.34 0.2,-0.5 0.6,-0.54 1.1,-0.1 1.5,-0.35 1.5,-1.05 0,-0.89 -1.5,-2.05 -1.8,-2.3 l -19.4,-14.94 4,15.99 c 0.4,1.8 0.5,2.3 4.2,2.3 1.2,0 1.7,0 1.7,1 0,0.43 -0.4,0.54 -0.7,0.54 -1.4,0 -5,-0.15 -6.4,-0.15 -1.4,0 -5,0.15 -6.4,0.15 -0.4,0 -1,0 -1,-0.95 0,-0.59 0.4,-0.59 1.4,-0.59 0.7,0 1.6,-0.05 2.2,-0.1 0.7,-0.11 1.1,-0.25 1.1,-0.79 0,-0.21 -0.1,-0.36 -0.2,-0.96 l -6.7,-26.75 c -0.5,-1.95 -0.6,-2.34 -4.6,-2.34 -0.8,0 -1.4,0 -1.4,-0.95 0,-0.6 0.6,-0.6 0.8,-0.6 1.4,0 4.9,0.16 6.3,0.16 1.1,0 2.2,-0.06 3.2,-0.06 1.1,0 2.2,-0.1 3.2,-0.1 0.4,0 1,0 1,1 0,0.55 -0.4,0.55 -1.3,0.55 -1.9,0 -3.3,0 -3.3,0.89 0,0.36 0.3,1.45 0.5,2.2 0.7,2.58 1.3,5.22 2,7.81 l 7.4,5.79 5.8,-13.41 c 0.6,-1.34 0.6,-1.44 0.6,-1.73 0,-1.5 -2.2,-1.55 -2.6,-1.55 -0.6,0 -1.1,0 -1.1,-1 0,-0.55 0.6,-0.55 0.7,-0.55 2,0 4.1,0.16 6.1,0.16 1,0 3.7,-0.16 4.8,-0.16 0.3,0 0.9,0 0.9,1 0,0.55 -0.5,0.55 -1,0.55 -2,0.05 -2.7,0.5 -3.4,2.23 z"
             inkscape:connector-curvature="0"
             style="fill:#ffffff;fill-opacity:1;stroke:#4e4e4e;stroke-width:0;stroke-opacity:1" /><path
             id="path3778"
             d="m 1225,361.04 0,0.04 0,0.04 0,0.04 0,0.04 0,0.04 0,0.04 0,0.04 0,0.03 0,0.03 0,0.04 0,0.03 0,0.03 0,0.03 0,0.03 0,0.02 0,0.03 0,0.03 0,0.02 0,0.02 -0.1,0.03 0,0.04 0,0.04 0,0.03 0,0.03 0,0.03 -0.1,0.02 0,0.03 0,0.02 -0.1,0.01 0,0.02 0,0.01 -0.1,0.01 0,0.01 0,0 0,0.01 -0.1,0 0,0 0,0.01 -0.1,0 0,0 0,0 -0.1,0 0,0.01 0,0 -0.1,0 0,0 0,0 -0.1,0 0,0 -0.1,0 0,0 -0.1,0 c -2.2,-2.2 -5.3,-2.23 -6.8,-2.23 v -1.25 c 0.9,0 3.2,0 5.1,0.96 v -17.76 c 0,-1.16 0,-1.61 -3.5,-1.61 h -1.3 v -1.25 c 0.6,0.03 4.9,0.14 6.2,0.14 1.1,0 5.4,-0.11 6.2,-0.14 v 1.25 h -1.3 c -3.5,0 -3.5,0.45 -3.5,1.61 z"
             inkscape:connector-curvature="0"
             style="fill:#ffffff;fill-opacity:1;stroke:#4e4e4e;stroke-width:0;stroke-opacity:1" /><path
             id="path3780"
             d="m 1245.8,346.49 -0.1,0.3 0,0.3 0,0.29 0,0.28 0,0.27 -0.1,0.27 0,0.25 -0.1,0.25 0,0.23 -0.1,0.23 -0.1,0.22 0,0.21 -0.1,0.2 -0.1,0.2 -0.1,0.18 -0.1,0.17 -0.1,0.17 -0.1,0.15 -0.1,0.14 -0.2,0.14 -0.1,0.12 -0.1,0.11 -0.2,0.11 -0.1,0.09 -0.2,0.08 -0.1,0.07 -0.2,0.06 -0.1,0.05 -0.2,0.04 -0.2,0.03 -0.2,0.02 -0.1,0 c -1.7,0 -2.7,-1.25 -2.7,-2.64 0,-1.34 1,-2.64 2.7,-2.64 0.6,0 1.2,0.2 1.7,0.64 0.1,0.11 0.2,0.16 0.3,0.16 0,0 0.1,-0.05 0.1,-0.75 0,-3.69 -1.8,-6.67 -3.4,-8.31 -0.6,-0.55 -0.6,-0.66 -0.6,-0.8 0,-0.36 0.3,-0.55 0.5,-0.55 0.6,0 4.6,3.83 4.6,9.66 z"
             inkscape:connector-curvature="0"
             style="fill:#ffffff;fill-opacity:1;stroke:#4e4e4e;stroke-width:0;stroke-opacity:1" /><path
             id="path3782"
             d="m 1289,374.79 0.2,0.35 0.3,0.33 0.2,0.31 0.2,0.3 0.2,0.27 0.2,0.25 0.3,0.24 0.2,0.22 0.2,0.2 0.2,0.19 0.2,0.17 0.2,0.16 0.2,0.14 0.2,0.13 0.2,0.12 0.2,0.11 0.2,0.09 0.2,0.09 0.2,0.07 0.2,0.07 0.2,0.06 0.2,0.05 0.2,0.04 0.2,0.04 0.1,0.03 0.2,0.02 0.4,0.04 0.3,0.03 0.4,0.02 c 0.6,0.04 0.6,0.89 0.6,0.95 0,0.39 -0.2,0.59 -0.6,0.59 -1.3,0 -2.8,-0.15 -4.1,-0.15 -1.6,0 -3.4,0.15 -4.9,0.15 -0.3,0 -1,0 -1,-0.95 0,-0.55 0.5,-0.59 0.8,-0.59 1.4,-0.1 2.3,-0.6 2.3,-1.64 0,-0.75 -0.7,-1.85 -0.7,-1.9 l -15.3,-24.31 -3.4,26.35 c 0,0.84 1.1,1.5 3.4,1.5 0.7,0 1.3,0 1.3,1 0,0.43 -0.4,0.54 -0.7,0.54 -2,0 -4.2,-0.15 -6.2,-0.15 -0.9,0 -1.8,0.04 -2.8,0.04 -0.9,0 -1.8,0.11 -2.7,0.11 -0.3,0 -0.9,0 -0.9,-0.95 0,-0.59 0.4,-0.59 1.3,-0.59 2.8,0 2.8,-0.46 3,-1.69 l 3.9,-30.75 c 0.1,-1 0.3,-1.14 1,-1.14 0.8,0 1,0.25 1.4,0.89 z"
             inkscape:connector-curvature="0"
             style="fill:#ffffff;fill-opacity:1;stroke:#4e4e4e;stroke-width:0;stroke-opacity:1" /><path
             id="path3784"
             d="m 1298.4,361.04 0,0.04 0,0.04 0,0.04 0,0.04 0,0.04 0,0.04 0,0.04 0,0.03 0,0.03 0,0.04 0,0.03 0,0.03 0,0.03 0,0.03 0,0.02 0,0.03 0,0.03 0,0.02 0,0.02 0,0.03 0,0.04 0,0.04 -0.1,0.03 0,0.03 0,0.03 0,0.02 0,0.03 -0.1,0.02 0,0.01 -0.1,0.02 0,0.01 0,0.01 -0.1,0.01 0,0 0,0.01 0,0 -0.1,0 0,0.01 0,0 -0.1,0 0,0 0,0 0,0.01 -0.1,0 0,0 -0.1,0 0,0 0,0 -0.1,0 0,0 -0.1,0 0,0 c -2.2,-2.2 -5.4,-2.23 -6.8,-2.23 v -1.25 c 0.8,0 3.1,0 5,0.96 v -17.76 c 0,-1.16 0,-1.61 -3.5,-1.61 h -1.3 v -1.25 c 0.6,0.03 4.9,0.14 6.2,0.14 1.1,0 5.5,-0.11 6.2,-0.14 v 1.25 h -1.3 c -3.5,0 -3.5,0.45 -3.5,1.61 z"
             inkscape:connector-curvature="0"
             style="fill:#ffffff;fill-opacity:1;stroke:#4e4e4e;stroke-width:0;stroke-opacity:1" /><path
             id="path3786"
             d="m 1323.6,358.89 0,0.38 0,0.38 0,0.39 0,0.41 -0.1,0.84 0,0.88 -0.1,0.92 -0.1,0.95 -0.2,0.98 -0.1,1 -0.2,1.02 -0.3,1.04 -0.2,1.05 -0.3,1.06 -0.4,1.06 -0.4,1.07 -0.2,0.53 -0.2,0.53 -0.2,0.53 -0.3,0.53 c -3,6.13 -7.3,9.36 -7.8,9.36 -0.3,0 -0.5,-0.19 -0.5,-0.48 0,-0.16 0,-0.25 1,-1.16 4.9,-4.92 7.7,-12.84 7.7,-23.27 0,-8.51 -1.8,-17.28 -8,-23.56 -0.7,-0.59 -0.7,-0.7 -0.7,-0.84 0,-0.3 0.2,-0.5 0.5,-0.5 0.5,0 5,3.39 8,9.72 2.5,5.47 3.1,11 3.1,15.18 z"
             inkscape:connector-curvature="0"
             style="fill:#ffffff;fill-opacity:1;stroke:#4e4e4e;stroke-width:0;stroke-opacity:1" /></g>      </g>
    </g>
    <g
       id="g4167"
       transform="matrix(0.94514299,-0.32665689,0.32665689,0.94514299,-170.19094,191.78721)">
      <rect
         ry="31.31473"
         rx="46.467018"
         y="539.70984"
         x="30.304571"
         height="69.700523"
         width="264.65997"
         id="rect2985-9"
         style="fill:#192b4b;fill-opacity:0.77647059;stroke:none" />
      <g
         style="fill:#eeeeec"
         transform="translate(-969.55833,166.79097)"
         id="g3894">
        <g
           style="font-style:normal;font-variant:normal;font-weight:normal;font-stretch:normal;letter-spacing:normal;word-spacing:normal;text-anchor:start;fill:#eeeeec;stroke:#000000;stroke-linecap:butt;stroke-linejoin:miter;stroke-miterlimit:10.43299961;stroke-opacity:1;stroke-dasharray:none;stroke-dashoffset:0"
           id="g3896"
           transform="matrix(1.0629921,0,0,-1.0629921,-186.02362,789.27165)"
           xml:space="preserve"
           stroke-miterlimit="10.433"
           font-style="normal"
           font-variant="normal"
           font-weight="normal"
           font-stretch="normal"
           font-size-adjust="none"
           letter-spacing="normal"
           word-spacing="normal"><path
             style="fill:#eeeeec;stroke-width:0"
             inkscape:connector-curvature="0"
             d="m 1168.1,334.49 0,0.02 0,0.03 0,0.01 0,0.02 0,0.01 0,0.02 0,0.02 0,0.01 0,0.02 0,0.02 0,0.03 0,0.02 -0.1,0.02 0,0.03 0,0.03 0,0.03 0,0.04 -0.1,0.03 0,0.02 0,0.02 0,0.02 0,0.02 -0.1,0.02 0,0.03 0,0.02 0,0.02 -0.1,0.03 0,0.03 0,0.02 0,0.03 -0.1,0.03 0,0.03 0,0.03 0,0.03 -0.1,0.03 0,0.03 0,0.04 -0.1,0.03 0,0.04 0,0.04 -0.1,0.03 0,0.04 c -6.2,6.28 -7.8,15.69 -7.8,23.31 0,8.68 1.9,17.35 8,23.57 0.6,0.61 0.6,0.7 0.6,0.86 0,0.34 -0.2,0.48 -0.5,0.48 -0.5,0 -4.9,-3.37 -7.9,-9.7 -2.5,-5.49 -3.1,-11.02 -3.1,-15.21 0,-3.89 0.5,-9.9 3.3,-15.54 2.9,-6.13 7.2,-9.36 7.7,-9.36 0.3,0 0.5,0.14 0.5,0.5 z"
             id="path3898" /><path
             style="fill:#eeeeec;stroke-width:0"
             inkscape:connector-curvature="0"
             d="m 1196.3,366.57 0,0.01 0,0.02 0,0.02 0,0.01 0,0.02 0,0.03 0,0.02 0,0.02 -0.1,0.02 0,0.03 0,0.02 0,0.03 0,0.05 0,0.05 0,0.05 -0.1,0.05 0,0.02 0,0.03 0,0.02 0,0.03 0,0.02 0,0.02 0,0.02 0,0.02 0,0.02 0,0.02 0,0.01 0,0.02 c 0,0.05 0.9,0.75 1.4,1.14 l 8.7,6.73 c 4.7,3.44 6.7,3.63 8.1,3.79 0.5,0.04 0.9,0.09 0.9,1 0,0.18 -0.1,0.54 -0.5,0.54 -1.1,0 -2.3,-0.15 -3.5,-0.15 -1.8,0 -3.8,0.15 -5.6,0.15 -0.3,0 -0.9,0 -0.9,-1 0,-0.34 0.2,-0.5 0.6,-0.54 1.1,-0.1 1.5,-0.35 1.5,-1.05 0,-0.89 -1.5,-2.05 -1.8,-2.3 l -19.4,-14.94 4,15.99 c 0.4,1.8 0.5,2.3 4.2,2.3 1.2,0 1.7,0 1.7,1 0,0.43 -0.4,0.54 -0.7,0.54 -1.4,0 -5,-0.15 -6.4,-0.15 -1.4,0 -5,0.15 -6.4,0.15 -0.4,0 -1,0 -1,-0.95 0,-0.59 0.4,-0.59 1.4,-0.59 0.7,0 1.6,-0.05 2.2,-0.1 0.7,-0.11 1.1,-0.25 1.1,-0.79 0,-0.21 -0.1,-0.36 -0.2,-0.96 l -6.7,-26.75 c -0.5,-1.95 -0.6,-2.34 -4.6,-2.34 -0.8,0 -1.4,0 -1.4,-0.95 0,-0.6 0.6,-0.6 0.8,-0.6 1.4,0 4.9,0.16 6.3,0.16 1.1,0 2.2,-0.06 3.2,-0.06 1.1,0 2.2,-0.1 3.2,-0.1 0.4,0 1,0 1,1 0,0.55 -0.4,0.55 -1.3,0.55 -1.9,0 -3.3,0 -3.3,0.89 0,0.36 0.3,1.45 0.5,2.2 0.7,2.58 1.3,5.22 2,7.81 l 7.4,5.79 5.8,-13.41 c 0.6,-1.34 0.6,-1.44 0.6,-1.73 0,-1.5 -2.2,-1.55 -2.6,-1.55 -0.6,0 -1.1,0 -1.1,-1 0,-0.55 0.6,-0.55 0.7,-0.55 2,0 4.1,0.16 6.1,0.16 1,0 3.7,-0.16 4.8,-0.16 0.3,0 0.9,0 0.9,1 0,0.55 -0.5,0.55 -1,0.55 -2,0.05 -2.7,0.5 -3.4,2.23 z"
             id="path3900" /><path
             style="fill:#eeeeec;stroke-width:0"
             inkscape:connector-curvature="0"
             d="m 1230.9,345.22 h -1.2 c -0.1,-0.76 -0.4,-2.83 -0.9,-3.17 -0.2,-0.2 -2.9,-0.2 -3.4,-0.2 h -6.4 c 3.6,3.23 4.8,4.2 6.9,5.84 2.6,2.06 5,4.22 5,7.53 0,4.22 -3.7,6.8 -8.1,6.8 -4.4,0 -7.3,-3.03 -7.3,-6.23 0,-1.79 1.5,-1.96 1.9,-1.96 0.8,0 1.8,0.6 1.8,1.85 0,0.62 -0.2,1.84 -2,1.84 1,2.47 3.4,3.23 5,3.23 3.5,0 5.3,-2.7 5.3,-5.53 0,-3.03 -2.1,-5.43 -3.2,-6.68 l -8.4,-8.3 c -0.4,-0.31 -0.4,-0.39 -0.4,-1.36 h 14.4 z"
             id="path3902" /><path
             style="fill:#eeeeec;stroke-width:0"
             inkscape:connector-curvature="0"
             d="m 1245.8,346.49 -0.1,0.3 0,0.3 0,0.29 0,0.28 0,0.27 -0.1,0.27 0,0.25 -0.1,0.25 0,0.23 -0.1,0.23 -0.1,0.22 0,0.21 -0.1,0.2 -0.1,0.2 -0.1,0.18 -0.1,0.17 -0.1,0.17 -0.1,0.15 -0.1,0.14 -0.2,0.14 -0.1,0.12 -0.1,0.11 -0.2,0.11 -0.1,0.09 -0.2,0.08 -0.1,0.07 -0.2,0.06 -0.1,0.05 -0.2,0.04 -0.2,0.03 -0.2,0.02 -0.1,0 c -1.7,0 -2.7,-1.25 -2.7,-2.64 0,-1.34 1,-2.64 2.7,-2.64 0.6,0 1.2,0.2 1.7,0.64 0.1,0.11 0.2,0.16 0.3,0.16 0,0 0.1,-0.05 0.1,-0.75 0,-3.69 -1.8,-6.67 -3.4,-8.31 -0.6,-0.55 -0.6,-0.66 -0.6,-0.8 0,-0.36 0.3,-0.55 0.5,-0.55 0.6,0 4.6,3.83 4.6,9.66 z"
             id="path3904" /><path
             style="fill:#eeeeec;stroke-width:0"
             inkscape:connector-curvature="0"
             d="m 1289,374.79 0.2,0.35 0.3,0.33 0.2,0.31 0.2,0.3 0.2,0.27 0.2,0.25 0.3,0.24 0.2,0.22 0.2,0.2 0.2,0.19 0.2,0.17 0.2,0.16 0.2,0.14 0.2,0.13 0.2,0.12 0.2,0.11 0.2,0.09 0.2,0.09 0.2,0.07 0.2,0.07 0.2,0.06 0.2,0.05 0.2,0.04 0.2,0.04 0.1,0.03 0.2,0.02 0.4,0.04 0.3,0.03 0.4,0.02 c 0.6,0.04 0.6,0.89 0.6,0.95 0,0.39 -0.2,0.59 -0.6,0.59 -1.3,0 -2.8,-0.15 -4.1,-0.15 -1.6,0 -3.4,0.15 -4.9,0.15 -0.3,0 -1,0 -1,-0.95 0,-0.55 0.5,-0.59 0.8,-0.59 1.4,-0.1 2.3,-0.6 2.3,-1.64 0,-0.75 -0.7,-1.85 -0.7,-1.9 l -15.3,-24.31 -3.4,26.35 c 0,0.84 1.1,1.5 3.4,1.5 0.7,0 1.3,0 1.3,1 0,0.43 -0.4,0.54 -0.7,0.54 -2,0 -4.2,-0.15 -6.2,-0.15 -0.9,0 -1.8,0.04 -2.8,0.04 -0.9,0 -1.8,0.11 -2.7,0.11 -0.3,0 -0.9,0 -0.9,-0.95 0,-0.59 0.4,-0.59 1.3,-0.59 2.8,0 2.8,-0.46 3,-1.69 l 3.9,-30.75 c 0.1,-1 0.3,-1.14 1,-1.14 0.8,0 1,0.25 1.4,0.89 z"
             id="path3906" /><path
             style="fill:#eeeeec;stroke-width:0"
             inkscape:connector-curvature="0"
             d="m 1304.4,345.22 h -1.2 c -0.1,-0.76 -0.5,-2.83 -0.9,-3.17 -0.3,-0.2 -3,-0.2 -3.5,-0.2 h -6.4 c 3.7,3.23 4.9,4.2 7,5.84 2.5,2.06 5,4.22 5,7.53 0,4.22 -3.7,6.8 -8.2,6.8 -4.3,0 -7.3,-3.03 -7.3,-6.23 0,-1.79 1.5,-1.96 1.9,-1.96 0.8,0 1.9,0.6 1.9,1.85 0,0.62 -0.3,1.84 -2.1,1.84 1.1,2.47 3.4,3.23 5.1,3.23 3.5,0 5.3,-2.7 5.3,-5.53 0,-3.03 -2.2,-5.43 -3.3,-6.68 l -8.4,-8.3 c -0.4,-0.31 -0.4,-0.39 -0.4,-1.36 h 14.4 z"
             id="path3908" /><path
             style="fill:#eeeeec;stroke-width:0"
             inkscape:connector-curvature="0"
             d="m 1323.6,358.89 0,0.38 0,0.38 0,0.39 0,0.41 -0.1,0.84 0,0.88 -0.1,0.92 -0.1,0.95 -0.2,0.98 -0.1,1 -0.2,1.02 -0.3,1.04 -0.2,1.05 -0.3,1.06 -0.4,1.06 -0.4,1.07 -0.2,0.53 -0.2,0.53 -0.2,0.53 -0.3,0.53 c -3,6.13 -7.3,9.36 -7.8,9.36 -0.3,0 -0.5,-0.19 -0.5,-0.48 0,-0.16 0,-0.25 1,-1.16 4.9,-4.92 7.7,-12.84 7.7,-23.27 0,-8.51 -1.8,-17.28 -8,-23.56 -0.7,-0.59 -0.7,-0.7 -0.7,-0.84 0,-0.3 0.2,-0.5 0.5,-0.5 0.5,0 5,3.39 8,9.72 2.5,5.47 3.1,11 3.1,15.18 z"
             id="path3910" /></g>      </g>
    </g>
    <g
       id="g4143"
       transform="matrix(0.93277179,0.36046745,-0.36046745,0.93277179,248.81831,107.63512)">
      <rect
         ry="31.31473"
         rx="46.467018"
         y="666.98901"
         x="60.609158"
         height="69.700523"
         width="264.65997"
         id="rect2985-9-4"
         style="fill:#192b4b;fill-opacity:0.77647059;stroke:none" />
      <g
         style="fill:#eeeeec"
         transform="translate(-939.25374,294.07015)"
         id="g3966">
        <g
           style="font-style:normal;font-variant:normal;font-weight:normal;font-stretch:normal;letter-spacing:normal;word-spacing:normal;text-anchor:start;fill:#eeeeec;stroke:#000000;stroke-linecap:butt;stroke-linejoin:miter;stroke-miterlimit:10.43299961;stroke-opacity:1;stroke-dasharray:none;stroke-dashoffset:0"
           word-spacing="normal"
           letter-spacing="normal"
           font-size-adjust="none"
           font-stretch="normal"
           font-weight="normal"
           font-variant="normal"
           font-style="normal"
           stroke-miterlimit="10.433"
           xml:space="preserve"
           transform="matrix(1.0629921,0,0,-1.0629921,-186.02362,789.27165)"
           id="g3968"><path
             style="fill:#eeeeec;stroke-width:0"
             inkscape:connector-curvature="0"
             id="path3970"
             d="m 1168.1,334.49 0,0.02 0,0.03 0,0.01 0,0.02 0,0.01 0,0.02 0,0.02 0,0.01 0,0.02 0,0.02 0,0.03 0,0.02 -0.1,0.02 0,0.03 0,0.03 0,0.03 0,0.04 -0.1,0.03 0,0.02 0,0.02 0,0.02 0,0.02 -0.1,0.02 0,0.03 0,0.02 0,0.02 -0.1,0.03 0,0.03 0,0.02 0,0.03 -0.1,0.03 0,0.03 0,0.03 0,0.03 -0.1,0.03 0,0.03 0,0.04 -0.1,0.03 0,0.04 0,0.04 -0.1,0.03 0,0.04 c -6.2,6.28 -7.8,15.69 -7.8,23.31 0,8.68 1.9,17.35 8,23.57 0.6,0.61 0.6,0.7 0.6,0.86 0,0.34 -0.2,0.48 -0.5,0.48 -0.5,0 -4.9,-3.37 -7.9,-9.7 -2.5,-5.49 -3.1,-11.02 -3.1,-15.21 0,-3.89 0.5,-9.9 3.3,-15.54 2.9,-6.13 7.2,-9.36 7.7,-9.36 0.3,0 0.5,0.14 0.5,0.5 z" /><path
             style="fill:#eeeeec;stroke-width:0"
             inkscape:connector-curvature="0"
             id="path3972"
             d="m 1196.3,366.57 0,0.01 0,0.02 0,0.02 0,0.01 0,0.02 0,0.03 0,0.02 0,0.02 -0.1,0.02 0,0.03 0,0.02 0,0.03 0,0.05 0,0.05 0,0.05 -0.1,0.05 0,0.02 0,0.03 0,0.02 0,0.03 0,0.02 0,0.02 0,0.02 0,0.02 0,0.02 0,0.02 0,0.01 0,0.02 c 0,0.05 0.9,0.75 1.4,1.14 l 8.7,6.73 c 4.7,3.44 6.7,3.63 8.1,3.79 0.5,0.04 0.9,0.09 0.9,1 0,0.18 -0.1,0.54 -0.5,0.54 -1.1,0 -2.3,-0.15 -3.5,-0.15 -1.8,0 -3.8,0.15 -5.6,0.15 -0.3,0 -0.9,0 -0.9,-1 0,-0.34 0.2,-0.5 0.6,-0.54 1.1,-0.1 1.5,-0.35 1.5,-1.05 0,-0.89 -1.5,-2.05 -1.8,-2.3 l -19.4,-14.94 4,15.99 c 0.4,1.8 0.5,2.3 4.2,2.3 1.2,0 1.7,0 1.7,1 0,0.43 -0.4,0.54 -0.7,0.54 -1.4,0 -5,-0.15 -6.4,-0.15 -1.4,0 -5,0.15 -6.4,0.15 -0.4,0 -1,0 -1,-0.95 0,-0.59 0.4,-0.59 1.4,-0.59 0.7,0 1.6,-0.05 2.2,-0.1 0.7,-0.11 1.1,-0.25 1.1,-0.79 0,-0.21 -0.1,-0.36 -0.2,-0.96 l -6.7,-26.75 c -0.5,-1.95 -0.6,-2.34 -4.6,-2.34 -0.8,0 -1.4,0 -1.4,-0.95 0,-0.6 0.6,-0.6 0.8,-0.6 1.4,0 4.9,0.16 6.3,0.16 1.1,0 2.2,-0.06 3.2,-0.06 1.1,0 2.2,-0.1 3.2,-0.1 0.4,0 1,0 1,1 0,0.55 -0.4,0.55 -1.3,0.55 -1.9,0 -3.3,0 -3.3,0.89 0,0.36 0.3,1.45 0.5,2.2 0.7,2.58 1.3,5.22 2,7.81 l 7.4,5.79 5.8,-13.41 c 0.6,-1.34 0.6,-1.44 0.6,-1.73 0,-1.5 -2.2,-1.55 -2.6,-1.55 -0.6,0 -1.1,0 -1.1,-1 0,-0.55 0.6,-0.55 0.7,-0.55 2,0 4.1,0.16 6.1,0.16 1,0 3.7,-0.16 4.8,-0.16 0.3,0 0.9,0 0.9,1 0,0.55 -0.5,0.55 -1,0.55 -2,0.05 -2.7,0.5 -3.4,2.23 z" /><path
             style="fill:#eeeeec;stroke-width:0"
             inkscape:connector-curvature="0"
             id="path3974"
             d="m 1222.8,350.52 0.3,-0.01 0.2,-0.01 0.3,-0.03 0.2,-0.04 0.3,-0.05 0.2,-0.06 0.2,-0.07 0.2,-0.08 0.2,-0.1 0.2,-0.1 0.2,-0.12 0.2,-0.12 0.2,-0.14 0.2,-0.15 0.1,-0.16 0.2,-0.17 0.1,-0.18 0.2,-0.19 0.1,-0.21 0.1,-0.21 0.2,-0.23 0.1,-0.23 0.1,-0.25 0.1,-0.25 0,-0.27 0.1,-0.28 0.1,-0.29 0,-0.3 0.1,-0.31 0,-0.32 0,-0.34 0,-0.34 c 0,-4.33 -2.5,-5.61 -4.5,-5.61 -1.4,0 -4.5,0.38 -5.9,2.44 1.6,0.06 2,1.22 2,1.95 0,1.11 -0.9,1.91 -1.9,1.91 -1,0 -2,-0.6 -2,-2.02 0,-3.28 3.6,-5.4 7.8,-5.4 4.9,0 8.2,3.25 8.2,6.73 0,2.72 -2.2,5.44 -6,6.23 3.6,1.33 5,3.94 5,6.07 0,2.75 -3.2,4.81 -7.1,4.81 -3.9,0 -6.8,-1.89 -6.8,-4.67 0,-1.19 0.8,-1.85 1.8,-1.85 1.1,0 1.8,0.8 1.8,1.77 0,1.02 -0.7,1.75 -1.8,1.81 1.2,1.55 3.6,1.92 4.9,1.92 1.6,0 3.8,-0.76 3.8,-3.79 0,-1.47 -0.5,-3.07 -1.4,-4.14 -1.2,-1.33 -2.1,-1.41 -3.9,-1.5 -0.9,-0.08 -0.9,-0.08 -1.1,-0.11 -0.1,0 -0.4,-0.07 -0.4,-0.46 0,-0.48 0.3,-0.48 0.9,-0.48 z" /><path
             style="fill:#eeeeec;stroke-width:0"
             inkscape:connector-curvature="0"
             id="path3976"
             d="m 1245.8,346.49 -0.1,0.3 0,0.3 0,0.29 0,0.28 0,0.27 -0.1,0.27 0,0.25 -0.1,0.25 0,0.23 -0.1,0.23 -0.1,0.22 0,0.21 -0.1,0.2 -0.1,0.2 -0.1,0.18 -0.1,0.17 -0.1,0.17 -0.1,0.15 -0.1,0.14 -0.2,0.14 -0.1,0.12 -0.1,0.11 -0.2,0.11 -0.1,0.09 -0.2,0.08 -0.1,0.07 -0.2,0.06 -0.1,0.05 -0.2,0.04 -0.2,0.03 -0.2,0.02 -0.1,0 c -1.7,0 -2.7,-1.25 -2.7,-2.64 0,-1.34 1,-2.64 2.7,-2.64 0.6,0 1.2,0.2 1.7,0.64 0.1,0.11 0.2,0.16 0.3,0.16 0,0 0.1,-0.05 0.1,-0.75 0,-3.69 -1.8,-6.67 -3.4,-8.31 -0.6,-0.55 -0.6,-0.66 -0.6,-0.8 0,-0.36 0.3,-0.55 0.5,-0.55 0.6,0 4.6,3.83 4.6,9.66 z" /><path
             style="fill:#eeeeec;stroke-width:0"
             inkscape:connector-curvature="0"
             id="path3978"
             d="m 1289,374.79 0.2,0.35 0.3,0.33 0.2,0.31 0.2,0.3 0.2,0.27 0.2,0.25 0.3,0.24 0.2,0.22 0.2,0.2 0.2,0.19 0.2,0.17 0.2,0.16 0.2,0.14 0.2,0.13 0.2,0.12 0.2,0.11 0.2,0.09 0.2,0.09 0.2,0.07 0.2,0.07 0.2,0.06 0.2,0.05 0.2,0.04 0.2,0.04 0.1,0.03 0.2,0.02 0.4,0.04 0.3,0.03 0.4,0.02 c 0.6,0.04 0.6,0.89 0.6,0.95 0,0.39 -0.2,0.59 -0.6,0.59 -1.3,0 -2.8,-0.15 -4.1,-0.15 -1.6,0 -3.4,0.15 -4.9,0.15 -0.3,0 -1,0 -1,-0.95 0,-0.55 0.5,-0.59 0.8,-0.59 1.4,-0.1 2.3,-0.6 2.3,-1.64 0,-0.75 -0.7,-1.85 -0.7,-1.9 l -15.3,-24.31 -3.4,26.35 c 0,0.84 1.1,1.5 3.4,1.5 0.7,0 1.3,0 1.3,1 0,0.43 -0.4,0.54 -0.7,0.54 -2,0 -4.2,-0.15 -6.2,-0.15 -0.9,0 -1.8,0.04 -2.8,0.04 -0.9,0 -1.8,0.11 -2.7,0.11 -0.3,0 -0.9,0 -0.9,-0.95 0,-0.59 0.4,-0.59 1.3,-0.59 2.8,0 2.8,-0.46 3,-1.69 l 3.9,-30.75 c 0.1,-1 0.3,-1.14 1,-1.14 0.8,0 1,0.25 1.4,0.89 z" /><path
             style="fill:#eeeeec;stroke-width:0"
             inkscape:connector-curvature="0"
             id="path3980"
             d="m 1296.3,350.52 0.2,-0.01 0.3,-0.01 0.2,-0.03 0.3,-0.04 0.2,-0.05 0.2,-0.06 0.2,-0.07 0.3,-0.08 0.2,-0.1 0.2,-0.1 0.2,-0.12 0.2,-0.12 0.1,-0.14 0.2,-0.15 0.2,-0.16 0.1,-0.17 0.2,-0.18 0.1,-0.19 0.2,-0.21 0.1,-0.21 0.1,-0.23 0.1,-0.23 0.1,-0.25 0.1,-0.25 0.1,-0.27 0.1,-0.28 0,-0.29 0.1,-0.3 0,-0.31 0,-0.32 0,-0.34 0,-0.34 c 0,-4.33 -2.5,-5.61 -4.5,-5.61 -1.4,0 -4.5,0.38 -5.9,2.44 1.6,0.06 2,1.22 2,1.95 0,1.11 -0.8,1.91 -1.9,1.91 -1,0 -2,-0.6 -2,-2.02 0,-3.28 3.7,-5.4 7.9,-5.4 4.8,0 8.2,3.25 8.2,6.73 0,2.72 -2.3,5.44 -6.1,6.23 3.7,1.33 5,3.94 5,6.07 0,2.75 -3.2,4.81 -7,4.81 -3.9,0 -6.9,-1.89 -6.9,-4.67 0,-1.19 0.8,-1.85 1.8,-1.85 1.1,0 1.8,0.8 1.8,1.77 0,1.02 -0.7,1.75 -1.8,1.81 1.3,1.55 3.7,1.92 4.9,1.92 1.6,0 3.8,-0.76 3.8,-3.79 0,-1.47 -0.5,-3.07 -1.4,-4.14 -1.1,-1.33 -2.1,-1.41 -3.9,-1.5 -0.8,-0.08 -0.9,-0.08 -1.1,-0.11 0,0 -0.3,-0.07 -0.3,-0.46 0,-0.48 0.3,-0.48 0.9,-0.48 z" /><path
             style="fill:#eeeeec;stroke-width:0"
             inkscape:connector-curvature="0"
             id="path3982"
             d="m 1323.6,358.89 0,0.38 0,0.38 0,0.39 0,0.41 -0.1,0.84 0,0.88 -0.1,0.92 -0.1,0.95 -0.2,0.98 -0.1,1 -0.2,1.02 -0.3,1.04 -0.2,1.05 -0.3,1.06 -0.4,1.06 -0.4,1.07 -0.2,0.53 -0.2,0.53 -0.2,0.53 -0.3,0.53 c -3,6.13 -7.3,9.36 -7.8,9.36 -0.3,0 -0.5,-0.19 -0.5,-0.48 0,-0.16 0,-0.25 1,-1.16 4.9,-4.92 7.7,-12.84 7.7,-23.27 0,-8.51 -1.8,-17.28 -8,-23.56 -0.7,-0.59 -0.7,-0.7 -0.7,-0.84 0,-0.3 0.2,-0.5 0.5,-0.5 0.5,0 5,3.39 8,9.72 2.5,5.47 3.1,11 3.1,15.18 z" /></g>      </g>
    </g>
    <g
       id="g4155"
       transform="translate(-85.714287,-280)">
      <rect
         ry="31.31473"
         rx="46.467018"
         y="794.26825"
         x="125.2589"
         height="69.700523"
         width="264.65997"
         id="rect2985-9-0"
         style="fill:#192b4b;fill-opacity:0.77647059;stroke:none" />
      <g
         transform="translate(-874.604,421.34938)"
         id="g4056">
        <g
           style="font-style:normal;font-variant:normal;font-weight:normal;font-stretch:normal;letter-spacing:normal;word-spacing:normal;text-anchor:start;fill:#eeeeec;stroke:#000000;stroke-linecap:butt;stroke-linejoin:miter;stroke-miterlimit:10.43299961;stroke-opacity:1;stroke-dasharray:none;stroke-dashoffset:0"
           id="g4058"
           transform="matrix(1.0629921,0,0,-1.0629921,-186.02362,789.27165)"
           xml:space="preserve"
           stroke-miterlimit="10.433"
           font-style="normal"
           font-variant="normal"
           font-weight="normal"
           font-stretch="normal"
           font-size-adjust="none"
           letter-spacing="normal"
           word-spacing="normal"><path
             style="fill:#eeeeec;stroke-width:0"
             inkscape:connector-curvature="0"
             d="m 1163.3,334.49 0,0.02 0,0.03 0,0.01 0,0.02 0,0.01 0,0.02 0,0.02 0,0.01 0,0.02 0,0.02 0,0.03 -0.1,0.02 0,0.02 0,0.03 0,0.03 0,0.03 -0.1,0.04 0,0.03 0,0.02 0,0.02 0,0.02 -0.1,0.02 0,0.02 0,0.03 0,0.02 0,0.02 -0.1,0.03 0,0.03 0,0.02 0,0.03 -0.1,0.03 0,0.03 0,0.03 0,0.03 -0.1,0.03 0,0.03 0,0.04 -0.1,0.03 0,0.04 0,0.04 -0.1,0.03 0,0.04 c -6.2,6.28 -7.8,15.69 -7.8,23.31 0,8.68 1.9,17.35 8,23.57 0.6,0.61 0.6,0.7 0.6,0.86 0,0.34 -0.2,0.48 -0.5,0.48 -0.5,0 -4.9,-3.37 -7.9,-9.7 -2.5,-5.49 -3.1,-11.02 -3.1,-15.21 0,-3.89 0.5,-9.9 3.3,-15.54 2.9,-6.13 7.2,-9.36 7.7,-9.36 0.3,0 0.5,0.14 0.5,0.5 z"
             id="path4060" /><path
             style="fill:#eeeeec;stroke-width:0"
             inkscape:connector-curvature="0"
             d="m 1191.5,366.57 0,0.01 0,0.02 0,0.02 0,0.01 0,0.02 0,0.03 0,0.02 0,0.02 0,0.02 -0.1,0.03 0,0.02 0,0.03 0,0.05 0,0.05 0,0.05 -0.1,0.05 0,0.02 0,0.03 0,0.02 0,0.03 0,0.02 0,0.02 0,0.02 0,0.02 0,0.02 0,0.02 0,0.01 0,0.02 c 0,0.05 0.9,0.75 1.4,1.14 l 8.7,6.73 c 4.7,3.44 6.7,3.63 8.2,3.79 0.3,0.04 0.8,0.09 0.8,1 0,0.18 -0.1,0.54 -0.5,0.54 -1.1,0 -2.3,-0.15 -3.5,-0.15 -1.8,0 -3.8,0.15 -5.6,0.15 -0.3,0 -0.9,0 -0.9,-1 0,-0.34 0.2,-0.5 0.6,-0.54 1.1,-0.1 1.5,-0.35 1.5,-1.05 0,-0.89 -1.5,-2.05 -1.8,-2.3 l -19.4,-14.94 4,15.99 c 0.4,1.8 0.5,2.3 4.2,2.3 1.2,0 1.7,0 1.7,1 0,0.43 -0.4,0.54 -0.7,0.54 -1.4,0 -5,-0.15 -6.4,-0.15 -1.4,0 -5,0.15 -6.4,0.15 -0.4,0 -1,0 -1,-0.95 0,-0.59 0.4,-0.59 1.4,-0.59 0.7,0 1.6,-0.05 2.2,-0.1 0.8,-0.11 1.1,-0.25 1.1,-0.79 0,-0.21 -0.1,-0.36 -0.2,-0.96 l -6.7,-26.75 c -0.5,-1.95 -0.6,-2.34 -4.6,-2.34 -0.8,0 -1.3,0 -1.3,-0.95 0,-0.6 0.5,-0.6 0.7,-0.6 1.4,0 4.9,0.16 6.3,0.16 1.1,0 2.2,-0.06 3.2,-0.06 1.1,0 2.2,-0.1 3.3,-0.1 0.3,0 1,0 1,1 0,0.55 -0.5,0.55 -1.4,0.55 -1.9,0 -3.3,0 -3.3,0.89 0,0.36 0.3,1.45 0.5,2.2 0.7,2.58 1.3,5.22 2,7.81 l 7.4,5.79 5.8,-13.41 c 0.6,-1.34 0.6,-1.44 0.6,-1.73 0,-1.5 -2.2,-1.55 -2.6,-1.55 -0.6,0 -1.1,0 -1.1,-1 0,-0.55 0.6,-0.55 0.7,-0.55 2,0 4,0.16 6,0.16 1.1,0 3.8,-0.16 4.9,-0.16 0.3,0 0.9,0 0.9,1 0,0.55 -0.5,0.55 -1,0.55 -2,0.05 -2.7,0.5 -3.4,2.23 z"
             id="path4062" /><path
             style="fill:#eeeeec;stroke-width:0"
             inkscape:connector-curvature="0"
             d="m 1212.8,341.07 0,-0.05 -0.1,-0.04 0,-0.05 0,-0.05 0,-0.05 0,-0.05 0,-0.05 0,-0.06 -0.1,-0.11 0,-0.11 0,-0.11 -0.1,-0.11 0,-0.05 0,-0.05 0,-0.05 0,-0.05 0,-0.05 0,-0.05 0,-0.04 0,-0.04 0,-0.04 -0.1,-0.03 0,-0.03 0,-0.03 0,-0.03 0,-0.02 0,0 0,-0.01 0,-0.01 0,-0.01 c 0,-0.76 0.7,-1.1 1.2,-1.1 0.6,0 1.2,0.45 1.4,0.76 0.1,0.31 0.4,1.42 0.6,2.16 0.2,0.65 0.5,2.26 0.8,3.14 0.2,0.76 0.4,1.53 0.6,2.33 0.3,1.43 0.4,1.7 1.4,3.14 1,1.39 2.6,3.2 5.2,3.2 2.1,0 2.1,-1.78 2.1,-2.44 0,-2.09 -1.5,-5.95 -2.1,-7.42 -0.4,-0.98 -0.5,-1.3 -0.5,-1.89 0,-1.84 1.6,-2.98 3.3,-2.98 3.5,0 5,4.79 5,5.32 0,0.46 -0.4,0.46 -0.5,0.46 -0.5,0 -0.5,-0.21 -0.7,-0.6 -0.8,-2.78 -2.3,-4.22 -3.7,-4.22 -0.7,0 -0.8,0.49 -0.8,1.22 0,0.8 0.1,1.25 0.8,2.83 0.4,1.08 1.8,4.77 1.8,6.72 0,3.39 -2.7,3.97 -4.5,3.97 -2.9,0 -4.9,-1.77 -5.9,-3.16 -0.3,2.39 -2.3,3.16 -3.7,3.16 -1.5,0 -2.3,-1.08 -2.8,-1.88 -0.8,-1.28 -1.2,-3.28 -1.2,-3.45 0,-0.45 0.4,-0.45 0.6,-0.45 0.4,0 0.5,0.11 0.7,1.04 0.5,2.07 1.2,3.77 2.6,3.77 0.9,0 1.1,-0.77 1.1,-1.7 0,-0.68 -0.3,-1.96 -0.6,-2.89 -0.2,-0.96 -0.5,-2.38 -0.7,-3.14 z"
             id="path4064" /><path
             style="fill:#eeeeec;stroke-width:0"
             inkscape:connector-curvature="0"
             d="m 1245.8,346.49 -0.1,0.3 0,0.3 0,0.29 0,0.28 0,0.27 -0.1,0.27 0,0.25 -0.1,0.25 0,0.23 -0.1,0.23 -0.1,0.22 0,0.21 -0.1,0.2 -0.1,0.2 -0.1,0.18 -0.1,0.17 -0.1,0.17 -0.1,0.15 -0.1,0.14 -0.2,0.14 -0.1,0.12 -0.1,0.11 -0.2,0.11 -0.1,0.09 -0.2,0.08 -0.1,0.07 -0.2,0.06 -0.1,0.05 -0.2,0.04 -0.2,0.03 -0.2,0.02 -0.1,0 c -1.7,0 -2.7,-1.25 -2.7,-2.64 0,-1.34 1,-2.64 2.7,-2.64 0.6,0 1.2,0.2 1.7,0.64 0.1,0.11 0.2,0.16 0.3,0.16 0,0 0.1,-0.05 0.1,-0.75 0,-3.69 -1.8,-6.67 -3.4,-8.31 -0.6,-0.55 -0.6,-0.66 -0.6,-0.8 0,-0.36 0.3,-0.55 0.5,-0.55 0.6,0 4.6,3.83 4.6,9.66 z"
             id="path4066" /><path
             style="fill:#eeeeec;stroke-width:0"
             inkscape:connector-curvature="0"
             d="m 1289,374.79 0.2,0.35 0.3,0.33 0.2,0.31 0.2,0.3 0.2,0.27 0.2,0.25 0.3,0.24 0.2,0.22 0.2,0.2 0.2,0.19 0.2,0.17 0.2,0.16 0.2,0.14 0.2,0.13 0.2,0.12 0.2,0.11 0.2,0.09 0.2,0.09 0.2,0.07 0.2,0.07 0.2,0.06 0.2,0.05 0.2,0.04 0.2,0.04 0.1,0.03 0.2,0.02 0.4,0.04 0.3,0.03 0.4,0.02 c 0.6,0.04 0.6,0.89 0.6,0.95 0,0.39 -0.2,0.59 -0.6,0.59 -1.3,0 -2.8,-0.15 -4.1,-0.15 -1.6,0 -3.4,0.15 -4.9,0.15 -0.3,0 -1,0 -1,-0.95 0,-0.55 0.5,-0.59 0.8,-0.59 1.4,-0.1 2.3,-0.6 2.3,-1.64 0,-0.75 -0.7,-1.85 -0.7,-1.9 l -15.3,-24.31 -3.4,26.35 c 0,0.84 1.1,1.5 3.4,1.5 0.7,0 1.3,0 1.3,1 0,0.43 -0.4,0.54 -0.7,0.54 -2,0 -4.2,-0.15 -6.2,-0.15 -0.9,0 -1.8,0.04 -2.8,0.04 -0.9,0 -1.8,0.11 -2.7,0.11 -0.3,0 -0.9,0 -0.9,-0.95 0,-0.59 0.4,-0.59 1.3,-0.59 2.8,0 2.8,-0.46 3,-1.69 l 3.9,-30.75 c 0.1,-1 0.3,-1.14 1,-1.14 0.8,0 1,0.25 1.4,0.89 z"
             id="path4068" /><path
             style="fill:#eeeeec;stroke-width:0"
             inkscape:connector-curvature="0"
             d="m 1291,341.07 0,-0.05 0,-0.04 0,-0.05 0,-0.05 -0.1,-0.05 0,-0.05 0,-0.05 0,-0.06 0,-0.11 -0.1,-0.11 0,-0.11 0,-0.11 0,-0.05 0,-0.05 0,-0.05 -0.1,-0.05 0,-0.05 0,-0.05 0,-0.04 0,-0.04 0,-0.04 0,-0.03 0,-0.03 0,-0.03 0,-0.03 0,-0.02 0,0 0,-0.01 0,-0.01 0,-0.01 c 0,-0.76 0.6,-1.1 1.2,-1.1 0.6,0 1.1,0.45 1.3,0.76 0.2,0.31 0.5,1.42 0.6,2.16 0.2,0.65 0.6,2.26 0.8,3.14 0.2,0.76 0.4,1.53 0.6,2.33 0.4,1.43 0.5,1.7 1.5,3.14 0.9,1.39 2.6,3.2 5.2,3.2 2,0 2,-1.78 2,-2.44 0,-2.09 -1.5,-5.95 -2,-7.42 -0.4,-0.98 -0.5,-1.3 -0.5,-1.89 0,-1.84 1.5,-2.98 3.3,-2.98 3.5,0 5,4.79 5,5.32 0,0.46 -0.5,0.46 -0.6,0.46 -0.5,0 -0.5,-0.21 -0.6,-0.6 -0.8,-2.78 -2.3,-4.22 -3.7,-4.22 -0.8,0 -0.9,0.49 -0.9,1.22 0,0.8 0.2,1.25 0.8,2.83 0.4,1.08 1.9,4.77 1.9,6.72 0,3.39 -2.7,3.97 -4.6,3.97 -2.9,0 -4.8,-1.77 -5.9,-3.16 -0.2,2.39 -2.3,3.16 -3.7,3.16 -1.5,0 -2.3,-1.08 -2.7,-1.88 -0.8,-1.28 -1.3,-3.28 -1.3,-3.45 0,-0.45 0.5,-0.45 0.6,-0.45 0.5,0 0.5,0.11 0.8,1.04 0.5,2.07 1.1,3.77 2.5,3.77 0.9,0 1.1,-0.77 1.1,-1.7 0,-0.68 -0.3,-1.96 -0.5,-2.89 -0.2,-0.96 -0.6,-2.38 -0.8,-3.14 z"
             id="path4070" /><path
             style="fill:#eeeeec;stroke-width:0"
             inkscape:connector-curvature="0"
             d="m 1328.4,358.89 0,0.38 0,0.38 0,0.39 0,0.41 -0.1,0.84 0,0.88 -0.1,0.92 -0.1,0.95 -0.2,0.98 -0.1,1 -0.2,1.02 -0.3,1.04 -0.2,1.05 -0.3,1.06 -0.4,1.06 -0.4,1.07 -0.2,0.53 -0.2,0.53 -0.2,0.53 -0.3,0.53 c -3,6.13 -7.3,9.36 -7.8,9.36 -0.2,0 -0.5,-0.19 -0.5,-0.48 0,-0.16 0,-0.25 1,-1.16 4.9,-4.92 7.7,-12.84 7.7,-23.27 0,-8.51 -1.8,-17.28 -8,-23.56 -0.7,-0.59 -0.7,-0.7 -0.7,-0.84 0,-0.3 0.3,-0.5 0.5,-0.5 0.5,0 5,3.39 8,9.72 2.5,5.47 3.1,11 3.1,15.18 z"
             id="path4072" /></g>      </g>
    </g>
    <rect
       style="fill:none;stroke:#000000;stroke-width:1.50860465;stroke-linejoin:miter;stroke-miterlimit:4;stroke-opacity:1;stroke-dasharray:none;stroke-dashoffset:0"
       id="rect4181"
       width="254.77711"
       height="51.919968"
       x="651.1828"
       y="427.83075"
       rx="0"
       ry="0" />
    <rect
       inkscape:tile-y0="119.56305"
       inkscape:tile-x0="651.1828"
       style="fill:none;stroke:#000000;stroke-width:1.50860465;stroke-linejoin:miter;stroke-miterlimit:4;stroke-opacity:1;stroke-dasharray:none;stroke-dashoffset:0"
       id="use4213"
       width="254.77711"
       height="51.919968"
       x="651.1828"
       y="479.75073"
       rx="0"
       ry="0" />
    <rect
       inkscape:tile-y0="119.56305"
       inkscape:tile-x0="651.1828"
       style="fill:none;stroke:#000000;stroke-width:1.50860465;stroke-linejoin:miter;stroke-miterlimit:4;stroke-opacity:1;stroke-dasharray:none;stroke-dashoffset:0"
       id="use4215"
       width="254.77711"
       height="51.919968"
       x="651.1828"
       y="531.67072"
       rx="0"
       ry="0" />
    <rect
       inkscape:tile-y0="119.56305"
       inkscape:tile-x0="651.1828"
       style="fill:none;stroke:#000000;stroke-width:1.50860465;stroke-linejoin:miter;stroke-miterlimit:4;stroke-opacity:1;stroke-dasharray:none;stroke-dashoffset:0"
       id="use4217"
       width="254.77711"
       height="51.919968"
       x="651.1828"
       y="583.59064"
       rx="0"
       ry="0" />
    <rect
       inkscape:tile-y0="119.56305"
       inkscape:tile-x0="651.1828"
       style="fill:none;stroke:#000000;stroke-width:1.50860465;stroke-linejoin:miter;stroke-miterlimit:4;stroke-opacity:1;stroke-dasharray:none;stroke-dashoffset:0"
       id="use4219"
       width="254.77711"
       height="51.919968"
       x="651.1828"
       y="635.51062"
       rx="0"
       ry="0" />
    <rect
       inkscape:tile-y0="119.56305"
       inkscape:tile-x0="651.1828"
       style="fill:none;stroke:#000000;stroke-width:1.50860465;stroke-linejoin:miter;stroke-miterlimit:4;stroke-opacity:1;stroke-dasharray:none;stroke-dashoffset:0"
       id="use4221"
       width="254.77711"
       height="51.919968"
       x="651.1828"
       y="687.4306"
       rx="0"
       ry="0" />
    <rect
       inkscape:tile-y0="119.56305"
       inkscape:tile-x0="651.1828"
       style="fill:none;stroke:#000000;stroke-width:1.50860465;stroke-linejoin:miter;stroke-miterlimit:4;stroke-opacity:1;stroke-dasharray:none;stroke-dashoffset:0"
       id="use4223"
       width="254.77711"
       height="51.919968"
       x="651.1828"
       y="739.35059"
       rx="0"
       ry="0" />
    <rect
       inkscape:tile-y0="119.56305"
       inkscape:tile-x0="651.1828"
       style="fill:none;stroke:#000000;stroke-width:1.50860465;stroke-linejoin:miter;stroke-miterlimit:4;stroke-opacity:1;stroke-dasharray:none;stroke-dashoffset:0"
       id="use4225"
       width="254.77711"
       height="51.919968"
       x="651.1828"
       y="791.27051"
       rx="0"
       ry="0" />
    <text
       xml:space="preserve"
       style="font-size:20px;font-style:normal;font-variant:normal;font-weight:normal;font-stretch:normal;line-height:125%;letter-spacing:0px;word-spacing:0px;fill:#000000;fill-opacity:1;stroke:none;font-family:Verdana;-inkscape-font-specification:Verdana"
       x="614.28571"
       y="465.21933"
       id="text4241"
       sodipodi:linespacing="125%"><tspan
         sodipodi:role="line"
         id="tspan4243"
         x="614.28571"
         y="465.21933"
         style="font-size:32px">0</tspan></text>
    <text
       xml:space="preserve"
       style="font-size:20px;font-style:normal;font-variant:normal;font-weight:normal;font-stretch:normal;line-height:125%;letter-spacing:0px;word-spacing:0px;fill:#000000;fill-opacity:1;stroke:none;font-family:Verdana;-inkscape-font-specification:Verdana"
       x="614.09821"
       y="516.8443"
       id="text4241-9"
       sodipodi:linespacing="125%"><tspan
         sodipodi:role="line"
         id="tspan4243-8"
         x="614.09821"
         y="516.8443"
         style="font-size:32px">1</tspan></text>
    <text
       xml:space="preserve"
       style="font-size:20px;font-style:normal;font-variant:normal;font-weight:normal;font-stretch:normal;line-height:125%;letter-spacing:0px;word-spacing:0px;fill:#000000;fill-opacity:1;stroke:none;font-family:Verdana;-inkscape-font-specification:Verdana"
       x="615.52679"
       y="572.55859"
       id="text4241-99"
       sodipodi:linespacing="125%"
       inkscape:transform-center-x="-8.046875"><tspan
         sodipodi:role="line"
         id="tspan4243-4"
         x="615.52679"
         y="572.55859"
         style="font-size:32px">2</tspan></text>
    <text
       xml:space="preserve"
       style="font-size:20px;font-style:normal;font-variant:normal;font-weight:normal;font-stretch:normal;line-height:125%;letter-spacing:0px;word-spacing:0px;fill:#000000;fill-opacity:1;stroke:none;font-family:Verdana;-inkscape-font-specification:Verdana"
       x="618.38391"
       y="831.13007"
       id="text4241-7"
       sodipodi:linespacing="125%"><tspan
         sodipodi:role="line"
         id="tspan4243-6"
         x="618.38391"
         y="831.13007"
         style="font-size:32px">n</tspan></text>
    <path
       sodipodi:type="arc"
       style="fill:#000000;fill-opacity:1;stroke:#000000;stroke-width:2;stroke-linejoin:miter;stroke-miterlimit:4;stroke-opacity:1;stroke-dasharray:none;stroke-dashoffset:0"
       id="path4317"
       sodipodi:cx="513.57141"
       sodipodi:cy="670.52307"
       sodipodi:rx="6.4285712"
       sodipodi:ry="6.4285712"
       d="m 519.99998,670.52307 a 6.4285712,6.4285712 0 1 1 -12.85714,0 6.4285712,6.4285712 0 1 1 12.85714,0 z"
       transform="matrix(0,-1,1,0,-43.737361,1233.1478)" />
    <path
       transform="matrix(0,-1,1,0,-43.737361,1208.505)"
       sodipodi:type="arc"
       style="fill:#000000;fill-opacity:1;stroke:#000000;stroke-width:2;stroke-linejoin:miter;stroke-miterlimit:4;stroke-opacity:1;stroke-dasharray:none;stroke-dashoffset:0"
       id="path4317-1"
       sodipodi:cx="513.57141"
       sodipodi:cy="670.52307"
       sodipodi:rx="6.4285712"
       sodipodi:ry="6.4285712"
       d="m 519.99998,670.52307 a 6.4285712,6.4285712 0 1 1 -12.85714,0 6.4285712,6.4285712 0 1 1 12.85714,0 z" />
    <path
       transform="matrix(0,-1,1,0,-43.737361,1183.8621)"
       sodipodi:type="arc"
       style="fill:#000000;fill-opacity:1;stroke:#000000;stroke-width:2;stroke-linejoin:miter;stroke-miterlimit:4;stroke-opacity:1;stroke-dasharray:none;stroke-dashoffset:0"
       id="path4317-5"
       sodipodi:cx="513.57141"
       sodipodi:cy="670.52307"
       sodipodi:rx="6.4285712"
       sodipodi:ry="6.4285712"
       d="m 519.99998,670.52307 a 6.4285712,6.4285712 0 1 1 -12.85714,0 6.4285712,6.4285712 0 1 1 12.85714,0 z" />
    <path
       style="fill:#000000;fill-opacity:1;stroke:#000000;stroke-width:2.4000001;stroke-linecap:butt;stroke-linejoin:miter;stroke-miterlimit:4;stroke-opacity:1;stroke-dasharray:none;marker-end:url(#Arrow2Lend)"
       d="m 341.42857,164.09448 262.85714,92.85715"
       id="path4344"
       inkscape:connector-curvature="0"
       transform="translate(0,308.2677)"
       sodipodi:nodetypes="cc" />
    <path
       style="fill:#000000;fill-opacity:1;stroke:#000000;stroke-width:2.4000001;stroke-linecap:butt;stroke-linejoin:miter;stroke-miterlimit:4;stroke-opacity:1;stroke-dasharray:none;marker-end:url(#Arrow2Lend)"
       d="M 302.07975,559.30325 604.93689,456.44611"
       id="path4344-7"
       inkscape:connector-curvature="0"
       sodipodi:nodetypes="cc" />
    <path
       style="fill:#000000;fill-opacity:1;stroke:#000000;stroke-width:2.4000001;stroke-linecap:butt;stroke-linejoin:miter;stroke-miterlimit:4;stroke-opacity:1;stroke-dasharray:none;marker-end:url(#Arrow2Lend)"
       d="M 293.41551,635.23459 607.70122,616.66317"
       id="path4344-7-1"
       inkscape:connector-curvature="0"
       sodipodi:nodetypes="cc" />
    <path
       style="fill:#000000;fill-opacity:1;stroke:#000000;stroke-width:2.4000001;stroke-linecap:butt;stroke-linejoin:miter;stroke-miterlimit:4;stroke-opacity:1;stroke-dasharray:none;marker-end:url(#Arrow2Lend)"
       d="M 297.45172,881.56153 603.76127,772.93858"
       id="path4344-7-1-8"
       inkscape:connector-curvature="0"
       sodipodi:nodetypes="cc" />
    <text
       xml:space="preserve"
       style="font-size:20px;font-style:normal;font-variant:normal;font-weight:normal;font-stretch:normal;line-height:125%;letter-spacing:0px;word-spacing:0px;fill:#000000;fill-opacity:1;stroke:none;font-family:Verdana;-inkscape-font-specification:Verdana"
       x="616.75226"
       y="625.66577"
       id="text4241-99-6"
       sodipodi:linespacing="125%"
       inkscape:transform-center-x="-8.046875"><tspan
         sodipodi:role="line"
         id="tspan4243-4-3"
         x="616.75226"
         y="625.66577"
         style="font-size:32px">3</tspan></text>
    <text
       xml:space="preserve"
       style="font-size:20px;font-style:normal;font-variant:normal;font-weight:normal;font-stretch:normal;line-height:125%;letter-spacing:0px;word-spacing:0px;fill:#000000;fill-opacity:1;stroke:none;font-family:Verdana;-inkscape-font-specification:Verdana"
       x="616.7522"
       y="779.95148"
       id="text4241-99-1"
       sodipodi:linespacing="125%"
       inkscape:transform-center-x="-8.046875"><tspan
         sodipodi:role="line"
         id="tspan4243-4-7"
         x="616.7522"
         y="779.95148"
         style="font-size:32px">6</tspan></text>
    <rect
       style="fill:#ff9898;fill-opacity:0.72549019999999997;stroke:none;stroke-width:2.40000010000000019;stroke-linejoin:miter;stroke-miterlimit:4;stroke-opacity:1;stroke-dasharray:none;stroke-dashoffset:0"
       id="rect5303"
       width="204.28572"
       height="571.42859"
       x="367.14285"
       y="382.36218" />
    <text
       xml:space="preserve"
       style="font-size:20px;font-style:normal;font-variant:normal;font-weight:normal;font-stretch:normal;line-height:125%;letter-spacing:0px;word-spacing:0px;fill:#000000;fill-opacity:1;stroke:none;font-family:Verdana;-inkscape-font-specification:Verdana"
       x="331.42856"
       y="358.07648"
       id="text5837"
       sodipodi:linespacing="125%"><tspan
         sodipodi:role="line"
         id="tspan5839"
         x="331.42856"
         y="358.07648"
         style="font-size:28px">fonction de hachage</tspan></text>
  </g>
</svg>
